<svg width="179" height="23" viewBox="0 0 179 23" fill="none" xmlns="http://www.w3.org/2000/svg">
<path d="M6 9.5C6 8.94772 6.44772 8.5 7 8.5H21C21.5523 8.5 22 8.94772 22 9.5V19.5C22 20.0523 21.5523 20.5 21 20.5H7C6.44772 20.5 6 20.0523 6 19.5V9.5Z" fill="#CFE9D9"/>
<path d="M4 3.5C4 2.94772 4.44772 2.5 5 2.5H23C23.5523 2.5 24 2.94772 24 3.5V5.5C24 6.05228 23.5523 6.5 23 6.5H5C4.44772 6.5 4 6.05228 4 5.5V3.5Z" fill="#006C4D"/>
<path d="M27.5795 8.21023V7.27273H34.125V8.21023H31.3807V16H30.3239V8.21023H27.5795ZM36.6254 12.0625V16H35.6197V7.27273H36.6254V10.4773H36.7106C36.864 10.1392 37.0941 9.87074 37.4009 9.67188C37.7106 9.47017 38.1225 9.36932 38.6367 9.36932C39.0827 9.36932 39.4734 9.45881 39.8086 9.63778C40.1438 9.81392 40.4038 10.0852 40.5884 10.4517C40.7759 10.8153 40.8697 11.2784 40.8697 11.8409V16H39.864V11.9091C39.864 11.3892 39.729 10.9872 39.4592 10.7031C39.1921 10.4162 38.8214 10.2727 38.3469 10.2727C38.0174 10.2727 37.7219 10.3423 37.4606 10.4815C37.2021 10.6207 36.9975 10.8239 36.8469 11.0909C36.6992 11.358 36.6254 11.6818 36.6254 12.0625ZM45.4538 16.1364C44.8232 16.1364 44.2791 15.9972 43.8217 15.7188C43.3672 15.4375 43.0163 15.0455 42.7692 14.5426C42.5249 14.0369 42.4027 13.4489 42.4027 12.7784C42.4027 12.108 42.5249 11.517 42.7692 11.0057C43.0163 10.4915 43.3601 10.0909 43.8004 9.80398C44.2436 9.5142 44.7607 9.36932 45.3516 9.36932C45.6925 9.36932 46.0291 9.42614 46.3615 9.53977C46.6939 9.65341 46.9964 9.83807 47.2692 10.0938C47.5419 10.3466 47.7592 10.6818 47.9212 11.0994C48.0831 11.517 48.1641 12.0312 48.1641 12.642V13.0682H43.1186V12.1989H47.1413C47.1413 11.8295 47.0675 11.5 46.9197 11.2102C46.7749 10.9205 46.5675 10.6918 46.2976 10.5241C46.0305 10.3565 45.7152 10.2727 45.3516 10.2727C44.951 10.2727 44.6044 10.3722 44.3118 10.571C44.022 10.767 43.799 11.0227 43.6428 11.3381C43.4865 11.6534 43.4084 11.9915 43.4084 12.3523V12.9318C43.4084 13.4261 43.4936 13.8452 43.6641 14.1889C43.8374 14.5298 44.0774 14.7898 44.3842 14.9688C44.6911 15.1449 45.0476 15.233 45.4538 15.233C45.718 15.233 45.9567 15.196 46.1697 15.1222C46.3857 15.0455 46.5717 14.9318 46.728 14.7812C46.8842 14.6278 47.005 14.4375 47.0902 14.2102L48.0618 14.483C47.9595 14.8125 47.7876 15.1023 47.5462 15.3523C47.3047 15.5994 47.0064 15.7926 46.6513 15.9318C46.2962 16.0682 45.897 16.1364 45.4538 16.1364ZM49.4723 14.2102V13.3409L53.3075 7.27273H53.9382V8.61932H53.5121L50.6143 13.2045V13.2727H55.7791V14.2102H49.4723ZM53.5803 16V13.946V13.5412V7.27273H54.5859V16H53.5803ZM60.1545 7.15341C60.5124 7.15625 60.8704 7.22443 61.2283 7.35795C61.5863 7.49148 61.913 7.71307 62.2085 8.02273C62.5039 8.32955 62.7411 8.74858 62.9201 9.27983C63.0991 9.81108 63.1886 10.4773 63.1886 11.2784C63.1886 12.054 63.1147 12.7429 62.967 13.3452C62.8221 13.9446 62.6119 14.4503 62.3363 14.8622C62.0636 15.2741 61.7312 15.5866 61.3391 15.7997C60.9499 16.0128 60.5096 16.1193 60.0181 16.1193C59.5295 16.1193 59.0934 16.0227 58.7099 15.8295C58.3292 15.6335 58.0167 15.3622 57.7724 15.0156C57.5309 14.6662 57.3761 14.2614 57.3079 13.8011H58.3477C58.4414 14.2017 58.6275 14.5327 58.9059 14.794C59.1871 15.0526 59.5579 15.1818 60.0181 15.1818C60.6914 15.1818 61.2227 14.8878 61.6119 14.2997C62.0039 13.7116 62.1999 12.8807 62.1999 11.8068H62.1317C61.9727 12.0455 61.7837 12.2514 61.565 12.4247C61.3462 12.598 61.1033 12.7315 60.8363 12.8253C60.5692 12.919 60.2852 12.9659 59.984 12.9659C59.484 12.9659 59.0252 12.8423 58.6076 12.5952C58.1928 12.3452 57.8604 12.0028 57.6104 11.5682C57.3633 11.1307 57.2397 10.6307 57.2397 10.0682C57.2397 9.53409 57.359 9.04545 57.5977 8.60227C57.8391 8.15625 58.1772 7.80114 58.6119 7.53693C59.0494 7.27273 59.5636 7.14489 60.1545 7.15341ZM60.1545 8.09091C59.7965 8.09091 59.4741 8.1804 59.1871 8.35938C58.9031 8.53551 58.6772 8.77415 58.5096 9.07528C58.3448 9.37358 58.2624 9.70455 58.2624 10.0682C58.2624 10.4318 58.342 10.7628 58.5011 11.0611C58.663 11.3565 58.8832 11.5923 59.1616 11.7685C59.4428 11.9418 59.7624 12.0284 60.1204 12.0284C60.3903 12.0284 60.6417 11.9759 60.8746 11.8707C61.1076 11.7628 61.3107 11.6165 61.484 11.4318C61.6602 11.2443 61.7979 11.0327 61.8974 10.7969C61.9968 10.5582 62.0465 10.3097 62.0465 10.0511C62.0465 9.71023 61.9641 9.39062 61.7994 9.09233C61.6374 8.79403 61.413 8.55256 61.1261 8.3679C60.842 8.18324 60.5181 8.09091 60.1545 8.09091ZM65.3097 16.0682C65.0994 16.0682 64.919 15.9929 64.7685 15.8423C64.6179 15.6918 64.5426 15.5114 64.5426 15.3011C64.5426 15.0909 64.6179 14.9105 64.7685 14.7599C64.919 14.6094 65.0994 14.5341 65.3097 14.5341C65.5199 14.5341 65.7003 14.6094 65.8509 14.7599C66.0014 14.9105 66.0767 15.0909 66.0767 15.3011C66.0767 15.4403 66.0412 15.5682 65.9702 15.6847C65.902 15.8011 65.8097 15.8949 65.6932 15.9659C65.5795 16.0341 65.4517 16.0682 65.3097 16.0682ZM68.0178 7.27273H69.2791L72.245 14.517H72.3473L75.3132 7.27273H76.5746V16H75.5859V9.36932H75.5007L72.7734 16H71.8189L69.0916 9.36932H69.0064V16H68.0178V7.27273ZM80.4833 16.1534C80.0685 16.1534 79.6921 16.0753 79.354 15.919C79.016 15.7599 78.7475 15.5312 78.5487 15.233C78.3498 14.9318 78.2504 14.5682 78.2504 14.142C78.2504 13.767 78.3242 13.4631 78.4719 13.2301C78.6197 12.9943 78.8171 12.8097 79.0643 12.6761C79.3114 12.5426 79.5842 12.4432 79.8825 12.3778C80.1836 12.3097 80.4862 12.2557 80.7901 12.2159C81.1879 12.1648 81.5103 12.1264 81.7575 12.1009C82.0075 12.0724 82.1893 12.0256 82.3029 11.9602C82.4194 11.8949 82.4776 11.7812 82.4776 11.6193V11.5852C82.4776 11.1648 82.3626 10.8381 82.1325 10.6051C81.9052 10.3722 81.56 10.2557 81.0969 10.2557C80.6168 10.2557 80.2404 10.3608 79.9677 10.571C79.695 10.7812 79.5032 11.0057 79.3924 11.2443L78.4379 10.9034C78.6083 10.5057 78.8356 10.196 79.1197 9.97443C79.4066 9.75 79.7191 9.59375 80.0572 9.50568C80.3981 9.41477 80.7333 9.36932 81.0629 9.36932C81.2731 9.36932 81.5146 9.39489 81.7873 9.44602C82.0629 9.49432 82.3285 9.59517 82.5842 9.74858C82.8427 9.90199 83.0572 10.1335 83.2276 10.4432C83.3981 10.7528 83.4833 11.1676 83.4833 11.6875V16H82.4776V15.1136H82.4265C82.3583 15.2557 82.2447 15.4077 82.0856 15.5696C81.9265 15.7315 81.7148 15.8693 81.4506 15.983C81.1864 16.0966 80.864 16.1534 80.4833 16.1534ZM80.6367 15.25C81.0344 15.25 81.3697 15.1719 81.6424 15.0156C81.918 14.8594 82.1254 14.6577 82.2646 14.4105C82.4066 14.1634 82.4776 13.9034 82.4776 13.6307V12.7102C82.435 12.7614 82.3413 12.8082 82.1964 12.8509C82.0543 12.8906 81.8896 12.9261 81.7021 12.9574C81.5174 12.9858 81.337 13.0114 81.1609 13.0341C80.9876 13.054 80.8469 13.071 80.739 13.0852C80.4776 13.1193 80.2333 13.1747 80.006 13.2514C79.7816 13.3253 79.5998 13.4375 79.4606 13.5881C79.3242 13.7358 79.256 13.9375 79.256 14.1932C79.256 14.5426 79.3853 14.8068 79.6438 14.9858C79.9052 15.1619 80.2362 15.25 80.6367 15.25ZM89.4439 13.3239V9.45455H90.4496V16H89.4439V14.892H89.3757C89.2223 15.2244 88.9837 15.5071 88.6598 15.7401C88.3359 15.9702 87.9268 16.0852 87.4325 16.0852C87.0234 16.0852 86.6598 15.9957 86.3416 15.8168C86.0234 15.6349 85.7734 15.3622 85.5916 14.9986C85.4098 14.6321 85.3189 14.1705 85.3189 13.6136V9.45455H86.3246V13.5455C86.3246 14.0227 86.4581 14.4034 86.7251 14.6875C86.995 14.9716 87.3388 15.1136 87.7564 15.1136C88.0064 15.1136 88.2607 15.0497 88.5192 14.9219C88.7805 14.794 88.9993 14.598 89.1754 14.3338C89.3544 14.0696 89.4439 13.733 89.4439 13.3239ZM92.2915 16V9.45455H93.2972V16H92.2915ZM92.8029 8.36364C92.6069 8.36364 92.4379 8.29688 92.2958 8.16335C92.1566 8.02983 92.087 7.86932 92.087 7.68182C92.087 7.49432 92.1566 7.33381 92.2958 7.20028C92.4379 7.06676 92.6069 7 92.8029 7C92.9989 7 93.1665 7.06676 93.3058 7.20028C93.4478 7.33381 93.5188 7.49432 93.5188 7.68182C93.5188 7.86932 93.4478 8.02983 93.3058 8.16335C93.1665 8.29688 92.9989 8.36364 92.8029 8.36364ZM95.8722 16.0682C95.6619 16.0682 95.4815 15.9929 95.331 15.8423C95.1804 15.6918 95.1051 15.5114 95.1051 15.3011C95.1051 15.0909 95.1804 14.9105 95.331 14.7599C95.4815 14.6094 95.6619 14.5341 95.8722 14.5341C96.0824 14.5341 96.2628 14.6094 96.4134 14.7599C96.5639 14.9105 96.6392 15.0909 96.6392 15.3011C96.6392 15.4403 96.6037 15.5682 96.5327 15.6847C96.4645 15.8011 96.3722 15.8949 96.2557 15.9659C96.142 16.0341 96.0142 16.0682 95.8722 16.0682ZM105.603 10H104.546C104.484 9.69602 104.374 9.42898 104.218 9.19886C104.065 8.96875 103.877 8.77557 103.656 8.61932C103.437 8.46023 103.194 8.34091 102.927 8.26136C102.66 8.18182 102.381 8.14205 102.092 8.14205C101.563 8.14205 101.085 8.27557 100.656 8.54261C100.229 8.80966 99.8899 9.20312 99.6371 9.72301C99.3871 10.2429 99.2621 10.8807 99.2621 11.6364C99.2621 12.392 99.3871 13.0298 99.6371 13.5497C99.8899 14.0696 100.229 14.4631 100.656 14.7301C101.085 14.9972 101.563 15.1307 102.092 15.1307C102.381 15.1307 102.66 15.0909 102.927 15.0114C103.194 14.9318 103.437 14.8139 103.656 14.6577C103.877 14.4986 104.065 14.304 104.218 14.0739C104.374 13.8409 104.484 13.5739 104.546 13.2727H105.603C105.523 13.7187 105.379 14.1179 105.168 14.4702C104.958 14.8224 104.697 15.1222 104.384 15.3693C104.072 15.6136 103.721 15.7997 103.332 15.9276C102.945 16.0554 102.532 16.1193 102.092 16.1193C101.347 16.1193 100.685 15.9375 100.106 15.5739C99.5263 15.2102 99.0703 14.6932 98.7379 14.0227C98.4055 13.3523 98.2393 12.5568 98.2393 11.6364C98.2393 10.7159 98.4055 9.92045 98.7379 9.25C99.0703 8.57955 99.5263 8.0625 100.106 7.69886C100.685 7.33523 101.347 7.15341 102.092 7.15341C102.532 7.15341 102.945 7.21733 103.332 7.34517C103.721 7.47301 104.072 7.66051 104.384 7.90767C104.697 8.15199 104.958 8.45028 105.168 8.80256C105.379 9.15199 105.523 9.55114 105.603 10ZM109.833 16.1364C109.243 16.1364 108.724 15.9957 108.278 15.7145C107.835 15.4332 107.488 15.0398 107.238 14.5341C106.991 14.0284 106.868 13.4375 106.868 12.7614C106.868 12.0795 106.991 11.4844 107.238 10.9759C107.488 10.4673 107.835 10.0724 108.278 9.79119C108.724 9.50994 109.243 9.36932 109.833 9.36932C110.424 9.36932 110.941 9.50994 111.385 9.79119C111.831 10.0724 112.177 10.4673 112.424 10.9759C112.674 11.4844 112.799 12.0795 112.799 12.7614C112.799 13.4375 112.674 14.0284 112.424 14.5341C112.177 15.0398 111.831 15.4332 111.385 15.7145C110.941 15.9957 110.424 16.1364 109.833 16.1364ZM109.833 15.233C110.282 15.233 110.652 15.1179 110.941 14.8878C111.231 14.6577 111.446 14.3551 111.585 13.9801C111.724 13.6051 111.794 13.1989 111.794 12.7614C111.794 12.3239 111.724 11.9162 111.585 11.5384C111.446 11.1605 111.231 10.8551 110.941 10.6222C110.652 10.3892 110.282 10.2727 109.833 10.2727C109.385 10.2727 109.015 10.3892 108.725 10.6222C108.436 10.8551 108.221 11.1605 108.082 11.5384C107.943 11.9162 107.873 12.3239 107.873 12.7614C107.873 13.1989 107.943 13.6051 108.082 13.9801C108.221 14.3551 108.436 14.6577 108.725 14.8878C109.015 15.1179 109.385 15.233 109.833 15.233ZM115.34 12.0625V16H114.335V9.45455H115.306V10.4773H115.391C115.545 10.1449 115.778 9.87784 116.09 9.67614C116.403 9.47159 116.806 9.36932 117.3 9.36932C117.744 9.36932 118.131 9.46023 118.464 9.64205C118.796 9.82102 119.055 10.0938 119.239 10.4602C119.424 10.8239 119.516 11.2841 119.516 11.8409V16H118.511V11.9091C118.511 11.3949 118.377 10.9943 118.11 10.7074C117.843 10.4176 117.477 10.2727 117.011 10.2727C116.69 10.2727 116.403 10.3423 116.15 10.4815C115.9 10.6207 115.702 10.8239 115.558 11.0909C115.413 11.358 115.34 11.6818 115.34 12.0625ZM124.201 9.45455V10.3068H120.809V9.45455H124.201ZM121.797 7.88636H122.803V14.125C122.803 14.4091 122.844 14.6222 122.926 14.7642C123.012 14.9034 123.12 14.9972 123.25 15.0455C123.384 15.0909 123.525 15.1136 123.672 15.1136C123.783 15.1136 123.874 15.108 123.945 15.0966C124.016 15.0824 124.073 15.071 124.115 15.0625L124.32 15.9659C124.252 15.9915 124.157 16.017 124.034 16.0426C123.912 16.071 123.757 16.0852 123.57 16.0852C123.286 16.0852 123.007 16.0241 122.735 15.902C122.465 15.7798 122.24 15.5938 122.061 15.3438C121.885 15.0938 121.797 14.7784 121.797 14.3977V7.88636ZM128.387 16.1364C127.757 16.1364 127.213 15.9972 126.755 15.7188C126.301 15.4375 125.95 15.0455 125.703 14.5426C125.458 14.0369 125.336 13.4489 125.336 12.7784C125.336 12.108 125.458 11.517 125.703 11.0057C125.95 10.4915 126.294 10.0909 126.734 9.80398C127.177 9.5142 127.694 9.36932 128.285 9.36932C128.626 9.36932 128.963 9.42614 129.295 9.53977C129.627 9.65341 129.93 9.83807 130.203 10.0938C130.475 10.3466 130.693 10.6818 130.855 11.0994C131.017 11.517 131.098 12.0312 131.098 12.642V13.0682H126.052V12.1989H130.075C130.075 11.8295 130.001 11.5 129.853 11.2102C129.708 10.9205 129.501 10.6918 129.231 10.5241C128.964 10.3565 128.649 10.2727 128.285 10.2727C127.885 10.2727 127.538 10.3722 127.245 10.571C126.956 10.767 126.733 11.0227 126.576 11.3381C126.42 11.6534 126.342 11.9915 126.342 12.3523V12.9318C126.342 13.4261 126.427 13.8452 126.598 14.1889C126.771 14.5298 127.011 14.7898 127.318 14.9688C127.625 15.1449 127.981 15.233 128.387 15.233C128.652 15.233 128.89 15.196 129.103 15.1222C129.319 15.0455 129.505 14.9318 129.662 14.7812C129.818 14.6278 129.939 14.4375 130.024 14.2102L130.995 14.483C130.893 14.8125 130.721 15.1023 130.48 15.3523C130.238 15.5994 129.94 15.7926 129.585 15.9318C129.23 16.0682 128.831 16.1364 128.387 16.1364ZM133.202 9.45455L134.77 12.1307L136.338 9.45455H137.497L135.384 12.7273L137.497 16H136.338L134.77 13.4602L133.202 16H132.043L134.122 12.7273L132.043 9.45455H133.202ZM141.779 9.45455V10.3068H138.387V9.45455H141.779ZM139.375 7.88636H140.381V14.125C140.381 14.4091 140.422 14.6222 140.505 14.7642C140.59 14.9034 140.698 14.9972 140.828 15.0455C140.962 15.0909 141.103 15.1136 141.25 15.1136C141.361 15.1136 141.452 15.108 141.523 15.0966C141.594 15.0824 141.651 15.071 141.694 15.0625L141.898 15.9659C141.83 15.9915 141.735 16.017 141.613 16.0426C141.49 16.071 141.336 16.0852 141.148 16.0852C140.864 16.0852 140.586 16.0241 140.313 15.902C140.043 15.7798 139.819 15.5938 139.64 15.3438C139.463 15.0938 139.375 14.7784 139.375 14.3977V7.88636ZM143.569 7.27273H144.83L147.796 14.517H147.898L150.864 7.27273H152.125V16H151.137V9.36932H151.051L148.324 16H147.37L144.642 9.36932H144.557V16H143.569V7.27273ZM156.852 16.1364C156.222 16.1364 155.678 15.9972 155.22 15.7188C154.766 15.4375 154.415 15.0455 154.168 14.5426C153.923 14.0369 153.801 13.4489 153.801 12.7784C153.801 12.108 153.923 11.517 154.168 11.0057C154.415 10.4915 154.759 10.0909 155.199 9.80398C155.642 9.5142 156.159 9.36932 156.75 9.36932C157.091 9.36932 157.428 9.42614 157.76 9.53977C158.092 9.65341 158.395 9.83807 158.668 10.0938C158.94 10.3466 159.158 10.6818 159.32 11.0994C159.482 11.517 159.562 12.0312 159.562 12.642V13.0682H154.517V12.1989H158.54C158.54 11.8295 158.466 11.5 158.318 11.2102C158.173 10.9205 157.966 10.6918 157.696 10.5241C157.429 10.3565 157.114 10.2727 156.75 10.2727C156.349 10.2727 156.003 10.3722 155.71 10.571C155.42 10.767 155.197 11.0227 155.041 11.3381C154.885 11.6534 154.807 11.9915 154.807 12.3523V12.9318C154.807 13.4261 154.892 13.8452 155.062 14.1889C155.236 14.5298 155.476 14.7898 155.783 14.9688C156.089 15.1449 156.446 15.233 156.852 15.233C157.116 15.233 157.355 15.196 157.568 15.1222C157.784 15.0455 157.97 14.9318 158.126 14.7812C158.283 14.6278 158.403 14.4375 158.489 14.2102L159.46 14.483C159.358 14.8125 159.186 15.1023 158.945 15.3523C158.703 15.5994 158.405 15.7926 158.05 15.9318C157.695 16.0682 157.295 16.1364 156.852 16.1364ZM162.098 12.0625V16H161.092V9.45455H162.064V10.4773H162.149C162.303 10.1449 162.536 9.87784 162.848 9.67614C163.161 9.47159 163.564 9.36932 164.058 9.36932C164.501 9.36932 164.889 9.46023 165.222 9.64205C165.554 9.82102 165.813 10.0938 165.997 10.4602C166.182 10.8239 166.274 11.2841 166.274 11.8409V16H165.268V11.9091C165.268 11.3949 165.135 10.9943 164.868 10.7074C164.601 10.4176 164.234 10.2727 163.768 10.2727C163.447 10.2727 163.161 10.3423 162.908 10.4815C162.658 10.6207 162.46 10.8239 162.315 11.0909C162.17 11.358 162.098 11.6818 162.098 12.0625ZM172.237 13.3239V9.45455H173.243V16H172.237V14.892H172.169C172.015 15.2244 171.777 15.5071 171.453 15.7401C171.129 15.9702 170.72 16.0852 170.225 16.0852C169.816 16.0852 169.453 15.9957 169.135 15.8168C168.816 15.6349 168.566 15.3622 168.385 14.9986C168.203 14.6321 168.112 14.1705 168.112 13.6136V9.45455H169.118V13.5455C169.118 14.0227 169.251 14.4034 169.518 14.6875C169.788 14.9716 170.132 15.1136 170.549 15.1136C170.799 15.1136 171.054 15.0497 171.312 14.9219C171.574 14.794 171.792 14.598 171.968 14.3338C172.147 14.0696 172.237 13.733 172.237 13.3239Z" fill="black"/>
</svg>
