<svg xmlns="http://www.w3.org/2000/svg" width="24" height="24" viewBox="0 0 24 24" fill="none">
	<path d="M5.6001 10.6667C5.6001 10.1145 6.04781 9.66675 6.6001 9.66675H17.4001C17.9524 9.66675 18.4001 10.1145 18.4001 10.6667V18.0001C18.4001 18.5524 17.9524 19.0001 17.4001 19.0001H6.6001C6.04781 19.0001 5.6001 18.5524 5.6001 18.0001V10.6667Z" fill="#CFE9D9"/>
	<path d="M4 6C4 5.44771 4.44772 5 5 5H19C19.5523 5 20 5.44772 20 6V7.11111C20 7.6634 19.5523 8.11111 19 8.11111H5C4.44772 8.11111 4 7.6634 4 7.11111V6Z" fill="#006C4D"/>
</svg>